PathFileType	4	(X/Y/Z)	OpenSim_Sub07_EMGStiffKnee_Magnet.trc
DataRate	CameraRate	NumFrames	NumMarkers	Units	OrigDataRate	OrigDataStartFrame	OrigNumFrames
100	100	16	8	m	100	6465	7388
Frame#	Time	torso_imu_offset_imu	pelvis_imu_offset_imu	tibia_r_imu_offset_imu	femur_r_imu_offset_imu	tibia_l_imu_offset_imu	femur_l_imu_offset_imu	toes_r_imu_offset_imu	toes_l_imu_offset_imu
				X1	Y1	Z1	X2	Y2	Z2	X3	Y3	Z3	X4	Y4	Z4	X5	Y5	Z5	X6	Y6	Z6	X7	Y7	Z7	X8		Y8	Z8	

6465	64.64000000	0.93887675	0.21521924	0.09040336	-0.67673363	0.20990582	-0.68360656	-0.65740911	-0.50879675	-0.02829443	-0.85867072	-0.09064052	-0.08934234	-0.46103833	0.70129955	0.25240028	-0.54400366	0.33938066	0.59507154	-0.56182555	-0.26678056	-0.51097791	-0.83593326	-0.20710250	-0.34782855
6466	64.65000000	0.93817459	0.21115848	0.08987647	-0.67025256	0.21030517	-0.68422787	-0.66065365	-0.50307195	-0.02821850	-0.85905665	-0.09644192	-0.08542035	-0.45383364	0.71143025	0.24054154	-0.53887057	0.34215844	0.59041009	-0.57722359	-0.26524050	-0.49698845	-0.84909386	-0.20557281	-0.33570501
6467	64.66000000	0.93762359	0.21145333	0.08243701	-0.67201239	0.20710644	-0.68321711	-0.65736132	-0.50819578	-0.02404703	-0.86043444	-0.09436859	-0.08269896	-0.44579693	0.72012059	0.23641698	-0.54246882	0.34181826	0.58427473	-0.58494157	-0.27362528	-0.47959702	-0.85670587	-0.20751433	-0.32317683
6468	64.67000000	0.93511632	0.21166288	0.08115360	-0.67077651	0.20186316	-0.68472428	-0.64697528	-0.51940971	-0.01094656	-0.85729101	-0.08962947	-0.07782260	-0.43826967	0.72399033	0.23250182	-0.54302997	0.34135053	0.58919563	-0.59656695	-0.27655936	-0.45826604	-0.86334674	-0.20666370	-0.31049216
6469	64.68000000	0.93900197	0.21183047	0.07739367	-0.67201156	0.20208563	-0.68584442	-0.64070756	-0.52839098	0.00519030	-0.86168664	-0.09675533	-0.06080464	-0.42491045	0.73365895	0.22410603	-0.54093545	0.34398350	0.58805850	-0.60836908	-0.27408657	-0.43929739	-0.86886712	-0.20597003	-0.28789323
6470	64.69000000	0.94089523	0.20924372	0.07106132	-0.67528697	0.20204801	-0.68591288	-0.63673244	-0.52919996	0.01374751	-0.86302939	-0.10510522	-0.04509795	-0.41043637	0.74748135	0.21838901	-0.54645919	0.35046086	0.58219304	-0.62038668	-0.27777948	-0.42701926	-0.87090775	-0.20737648	-0.26190318
6471	64.70000000	0.93475090	0.20505741	0.07206602	-0.67681240	0.19896722	-0.68085784	-0.63607189	-0.53703654	0.01248173	-0.86087975	-0.10970216	-0.04735314	-0.39661226	0.75496069	0.21614938	-0.54650756	0.34826804	0.58307994	-0.63182532	-0.27658486	-0.40732311	-0.87543246	-0.20572105	-0.24044096
6472	64.71000000	0.93876782	0.20730933	0.06766738	-0.67229884	0.20189246	-0.68032612	-0.62904779	-0.54497876	0.02452491	-0.86127147	-0.11383237	-0.04763349	-0.38125341	0.76126356	0.21270963	-0.54963711	0.34252940	0.58532052	-0.63020444	-0.28364714	-0.38972346	-0.87716467	-0.21003006	-0.21612714
6473	64.72000000	0.93785735	0.20373005	0.06628575	-0.67515069	0.19984778	-0.67860487	-0.62202182	-0.54593125	0.03378196	-0.86045045	-0.11347679	-0.04282186	-0.36470169	0.77320151	0.20617193	-0.55922310	0.34049151	0.57501814	-0.63353448	-0.30106636	-0.38215211	-0.88368824	-0.20902838	-0.18207318
6474	64.73000000	0.93658447	0.20315379	0.06759617	-0.67397394	0.19863135	-0.67957108	-0.61782035	-0.55468753	0.04234966	-0.85768332	-0.11794636	-0.03907600	-0.35455959	0.78410868	0.20020302	-0.56790979	0.33371188	0.56784795	-0.63718238	-0.30732452	-0.38002607	-0.88928846	-0.20509510	-0.14629301
6475	64.74000000	0.94413456	0.20340522	0.06433366	-0.67595997	0.19460139	-0.68090871	-0.60871384	-0.56445127	0.06356988	-0.85712858	-0.12285246	-0.04528622	-0.34113591	0.78921823	0.19837546	-0.57479037	0.33187617	0.55649807	-0.64263229	-0.31911486	-0.38497003	-0.89355017	-0.19287290	-0.11325117
6476	64.75000000	0.94147280	0.20099072	0.06399662	-0.67858785	0.19293369	-0.67678001	-0.59995074	-0.56942335	0.08145324	-0.85939772	-0.12454930	-0.04333326	-0.31291300	0.79487389	0.19343876	-0.58614625	0.32835323	0.55277377	-0.65096028	-0.31873907	-0.39374237	-0.89048601	-0.18454663	-0.07383176
6477	64.76000000	0.94155257	0.19576268	0.06135784	-0.67370601	0.19063520	-0.67805393	-0.59763061	-0.57684467	0.08669457	-0.85631019	-0.12627452	-0.04014471	-0.29539246	0.80375768	0.18641700	-0.60084860	0.31613002	0.54475845	-0.65512999	-0.32405740	-0.39673789	-0.89494007	-0.18082547	-0.03080530
6478	64.77000000	0.94319373	0.19727604	0.06219179	-0.67388852	0.18911584	-0.68185039	-0.59333041	-0.58050340	0.08990362	-0.85100382	-0.13032265	-0.04191831	-0.27646125	0.81020246	0.17602012	-0.60934223	0.30865787	0.53598890	-0.65675333	-0.33086522	-0.39808994	-0.89704322	-0.16796668	0.01698962
6479	64.78000000	0.94309936	0.19023823	0.06910047	-0.67974638	0.18470368	-0.68386208	-0.58885068	-0.58424627	0.09738585	-0.85445861	-0.13552123	-0.04676971	-0.25304442	0.82047877	0.17031692	-0.61913785	0.30482184	0.52593079	-0.66409519	-0.33642276	-0.40659065	-0.89190360	-0.15514171	0.05788890
6480	64.79000000	0.94304612	0.18823196	0.06353972	-0.67547512	0.18143188	-0.68080336	-0.58331836	-0.59092556	0.09398116	-0.85353313	-0.14798480	-0.04576488	-0.23307515	0.82701487	0.16064755	-0.62556483	0.30183915	0.51635166	-0.67178740	-0.34336846	-0.41247745	-0.89326486	-0.14140172	0.09330810
